<?xml version="1.0" encoding="UTF-8"?>
<svg width="50px" height="50px" viewBox="0 0 50 50" version="1.1" xmlns="http://www.w3.org/2000/svg" xmlns:xlink="http://www.w3.org/1999/xlink">
    <title>minimalogo</title>
    <g id="Page-1" stroke="none" stroke-width="1" fill="none" fill-rule="evenodd">
        <g id="minimalogo" fill-rule="nonzero">
            <path d="M43.999962,50 L6,50 C2.700002,50 0,47.3 0,44 L0,6 C0,2.7 2.700002,0 6,0 L43.999962,0 C47.299962,0 49.999962,2.7 49.999962,6 L49.999962,44 C49.999962,47.3 47.299962,50 43.999962,50 Z" id="Path" fill="#FFFFFF"></path>
            <polygon id="Path" fill="#000000" points="34.6962224 18.2624902 33.2749545 24.5489817 31.4572946 16.9641793 25.0887674 14.381239 23.3668247 21.9797227 21.8498397 13.069273 15.4813652 10.5 8.92151349 39.5 15.8776869 39.5 17.8866229 30.589524 19.403608 39.5 26.3734847 39.5 28.0817285 31.9014636 29.8993883 39.5 36.8555661 39.5 41.0784485 20.8317316"></polygon>
        </g>
    </g>
</svg>